<?xml version="1.0" encoding="utf-8"?>
<!-- Generator: Adobe Illustrator 27.5.0, SVG Export Plug-In . SVG Version: 6.00 Build 0)  -->
<svg version="1.1" id="Layer_1" xmlns="http://www.w3.org/2000/svg" xmlns:xlink="http://www.w3.org/1999/xlink" x="0px" y="0px"
	 viewBox="0 0 1200 1200" style="enable-background:new 0 0 1200 1200;" xml:space="preserve">
<style type="text/css">
	.st0{fill:#2D3445;}
</style>
<g>
	<path class="st0" d="M1182.5,136.1h-142.3V65.9c0-9.7-7.8-17.5-17.5-17.5c-9.7,0-17.5,7.8-17.5,17.5v70.2H758.4V65.9
		c0-9.7-7.8-17.5-17.5-17.5c-9.7,0-17.5,7.8-17.5,17.5v70.2H476.7V65.9c0-9.7-7.8-17.5-17.5-17.5c-9.7,0-17.5,7.8-17.5,17.5v70.2
		H194.9V65.9c0-9.7-7.8-17.5-17.5-17.5c-9.7,0-17.5,7.8-17.5,17.5v70.2H17.6c-9.7,0-17.5,7.8-17.5,17.5v980.4
		c0,9.7,7.8,17.5,17.5,17.5h1165c9.7,0,17.5-7.8,17.5-17.5l0-980.4C1200.1,143.9,1192.2,136.1,1182.5,136.1L1182.5,136.1z
		 M159.8,171.1v56.3c0,9.7,7.8,17.5,17.5,17.5c9.7,0,17.5-7.8,17.5-17.5v-56.3h246.7v56.3c0,9.7,7.8,17.5,17.5,17.5
		c9.7,0,17.5-7.8,17.5-17.5v-56.3h246.7v56.3c0,9.7,7.8,17.5,17.5,17.5s17.5-7.8,17.5-17.5v-56.3h246.7v56.3
		c0,9.7,7.8,17.5,17.5,17.5c9.7,0,17.5-7.8,17.5-17.5v-56.3h124.8v190H35V171.1L159.8,171.1z M35,1116.5V396.1h1129.9l0,720.4H35z"
		/>
	<path class="st0" d="M407.7,626.5h132.6c9.7,0,17.5-7.8,17.5-17.5V476.4c0-9.7-7.8-17.5-17.5-17.5H407.7c-9.7,0-17.5,7.8-17.5,17.5
		V609C390.2,618.6,398.1,626.5,407.7,626.5z M425.3,493.9h97.6v97.6h-97.6V493.9z"/>
	<path class="st0" d="M911.6,626.5h132.6c9.7,0,17.5-7.8,17.5-17.5V476.4c0-9.7-7.8-17.5-17.5-17.5H911.6c-9.7,0-17.5,7.8-17.5,17.5
		V609C894.1,618.6,901.9,626.5,911.6,626.5z M929.1,493.9h97.6v97.6h-97.6V493.9z"/>
	<path class="st0" d="M155.8,839.6h132.6c9.7,0,17.5-7.8,17.5-17.5V689.5c0-9.7-7.8-17.5-17.5-17.5H155.8c-9.7,0-17.5,7.8-17.5,17.5
		v132.6C138.3,831.7,146.1,839.6,155.8,839.6L155.8,839.6z M173.3,707h97.6v97.6h-97.6V707z"/>
	<path class="st0" d="M659.7,839.6h132.6c9.7,0,17.5-7.8,17.5-17.5V689.5c0-9.7-7.8-17.5-17.5-17.5H659.7c-9.7,0-17.5,7.8-17.5,17.5
		v132.6C642.2,831.7,650,839.6,659.7,839.6L659.7,839.6z M677.2,707h97.6v97.6h-97.6V707z"/>
	<path class="st0" d="M540.3,885H407.7c-9.7,0-17.5,7.8-17.5,17.5v132.6c0,9.7,7.8,17.5,17.5,17.5h132.6c9.7,0,17.5-7.8,17.5-17.5
		V902.6C557.8,892.9,550,885,540.3,885z M522.8,1017.7h-97.6v-97.6h97.6V1017.7z"/>
	<path class="st0" d="M804.7,464c-6.8-6.8-17.9-6.8-24.8,0L726,517.9L672.1,464c-6.8-6.8-17.9-6.8-24.8,0c-6.8,6.8-6.8,17.9,0,24.8
		l53.9,53.9l-53.9,53.9c-6.8,6.8-6.8,17.9,0,24.8c3.4,3.4,7.9,5.1,12.4,5.1s9-1.7,12.4-5.1l53.9-53.9l53.9,53.9
		c3.4,3.4,7.9,5.1,12.4,5.1s9-1.7,12.4-5.1c6.8-6.8,6.8-17.9,0-24.8l-53.9-53.9l53.9-53.9C811.5,481.9,811.5,470.8,804.7,464
		L804.7,464z"/>
	<path class="st0" d="M1056.6,677.1c-6.8-6.8-17.9-6.8-24.8,0L977.9,731L924,677.1c-6.8-6.8-17.9-6.8-24.8,0
		c-6.8,6.8-6.8,17.9,0,24.8l53.9,53.9l-53.9,53.9c-6.8,6.8-6.8,17.9,0,24.8c3.4,3.4,7.9,5.1,12.4,5.1s9-1.7,12.4-5.1l53.9-53.9
		l53.9,53.9c3.4,3.4,7.9,5.1,12.4,5.1s9-1.7,12.4-5.1c6.8-6.8,6.8-17.9,0-24.8l-53.9-53.9l53.9-53.9
		C1063.4,695,1063.4,683.9,1056.6,677.1L1056.6,677.1z"/>
	<path class="st0" d="M552.7,677.1c-6.8-6.8-17.9-6.8-24.8,0L474,731l-53.9-53.9c-6.8-6.8-17.9-6.8-24.8,0c-6.8,6.8-6.8,17.9,0,24.8
		l53.9,53.9l-53.9,53.9c-6.8,6.8-6.8,17.9,0,24.8c3.4,3.4,7.9,5.1,12.4,5.1s9-1.7,12.4-5.1l53.9-53.9l53.9,53.9
		c3.4,3.4,7.9,5.1,12.4,5.1s9-1.7,12.4-5.1c6.8-6.8,6.8-17.9,0-24.8l-53.9-53.9l53.9-53.9C559.6,695,559.6,683.9,552.7,677.1
		L552.7,677.1z"/>
	<path class="st0" d="M300.8,890.2c-6.8-6.8-17.9-6.8-24.8,0l-53.9,53.9l-53.9-53.9c-6.8-6.8-17.9-6.8-24.8,0
		c-6.8,6.8-6.8,17.9,0,24.8l53.9,53.9l-53.9,53.9c-6.8,6.8-6.8,17.9,0,24.8c3.4,3.4,7.9,5.1,12.4,5.1s9-1.7,12.4-5.1l53.9-53.9
		l53.9,53.9c3.4,3.4,7.9,5.1,12.4,5.1s9-1.7,12.4-5.1c6.8-6.8,6.8-17.9,0-24.8l-53.9-53.9l53.9-53.9
		C307.6,908.1,307.6,897,300.8,890.2L300.8,890.2z"/>
	<path class="st0" d="M804.7,890.2c-6.8-6.8-17.9-6.8-24.8,0L726,944.1l-53.9-53.9c-6.8-6.8-17.9-6.8-24.8,0
		c-6.8,6.8-6.8,17.9,0,24.8l53.9,53.9l-53.9,53.9c-6.8,6.8-6.8,17.9,0,24.8c3.4,3.4,7.9,5.1,12.4,5.1s9-1.7,12.4-5.1l53.9-53.9
		l53.9,53.9c3.4,3.4,7.9,5.1,12.4,5.1s9-1.7,12.4-5.1c6.8-6.8,6.8-17.9,0-24.8l-53.9-53.9l53.9-53.9
		C811.5,908.1,811.5,897,804.7,890.2L804.7,890.2z"/>
</g>
</svg>
