<?xml version="1.0" encoding="utf-8"?>
<!-- Generator: Adobe Illustrator 27.4.1, SVG Export Plug-In . SVG Version: 6.00 Build 0)  -->
<svg version="1.1" id="Layer_1" xmlns="http://www.w3.org/2000/svg" xmlns:xlink="http://www.w3.org/1999/xlink" x="0px" y="0px"
	 viewBox="0 0 533.06 39.12" style="enable-background:new 0 0 533.06 39.12;" xml:space="preserve">
<style type="text/css">
	.st0{fill:#2D3445;}
</style>
<g>
	<path class="st0" d="M251.04,1.01h-21.69v37.1h7.58V24.13h14.11c5.76-0.46,10.31-5.49,10.31-11.56
		C261.35,6.5,256.8,1.47,251.04,1.01z M250.18,16.56L250.18,16.56l-13.25,0V8.58h13.25c1.98,0,3.59,1.79,3.59,3.99
		C253.77,14.77,252.16,16.56,250.18,16.56z"/>
	<path class="st0" d="M147.02,1.01h-21.69v37.1h7.58V24.13h14.11c5.76-0.46,10.31-5.49,10.31-11.56
		C157.33,6.5,152.78,1.47,147.02,1.01z M146.16,16.56L146.16,16.56l-13.25,0V8.58h13.25c1.98,0,3.59,1.79,3.59,3.99
		C149.75,14.77,148.14,16.56,146.16,16.56z"/>
	<path class="st0" d="M55.98,1.01L39.34,38.1h8.9l2.7-6.36h19.02l2.7,6.36h8.96L64.99,1.01H55.98z M54.07,24.43l6.41-15.05
		l6.36,15.05H54.07z"/>
	<polygon class="st0" points="97.94,1.01 89.68,1.01 89.68,38.1 116.49,38.1 116.49,30.53 97.94,30.53 	"/>
	<polygon class="st0" points="189.19,15.79 172.61,15.79 172.61,1.01 164.34,1.01 164.34,38.1 172.61,38.1 172.61,23.37 
		189.19,23.37 189.19,38.1 197.35,38.1 197.35,1.01 189.19,1.01 	"/>
	<path class="st0" d="M279,1.01l-16.64,37.1h8.9l2.7-6.36h19.02l2.7,6.36h8.96l-16.64-37.1H279z M277.09,24.43l6.41-15.05
		l6.36,15.05H277.09z"/>
	<rect x="355.44" y="1.01" class="st0" width="8.21" height="37.1"/>
	<path class="st0" d="M388.59,1.01l-16.64,37.1h8.9l2.7-6.36h19.02l2.7,6.36h8.96L397.6,1.01H388.59z M386.68,24.43l6.41-15.05
		l6.36,15.05H386.68z"/>
	<path class="st0" d="M447.41,18.47c-1.33-0.9-2.84-1.58-4.56-2.04c-1.71-0.46-3.49-0.78-5.33-0.95c-1.17-0.11-2.23-0.24-3.21-0.4
		c-0.97-0.16-1.81-0.4-2.52-0.72c-0.71-0.32-1.25-0.74-1.64-1.27s-0.58-1.22-0.58-2.07c0-0.64,0.18-1.2,0.53-1.7
		s0.83-0.91,1.43-1.25s1.3-0.6,2.09-0.79c0.79-0.19,1.63-0.29,2.52-0.29c1.52,0,3.06,0.26,4.61,0.77c1.55,0.51,2.88,1.28,3.97,2.3
		l5.19-4.5c-1.91-2.19-3.97-3.66-6.2-4.42C441.5,0.38,438.95,0,436.09,0c-1.87,0-3.69,0.23-5.46,0.69s-3.33,1.15-4.69,2.07
		s-2.45,2.08-3.26,3.47c-0.81,1.4-1.22,3.01-1.22,4.85c-0.04,2.15,0.34,3.93,1.14,5.33c0.79,1.39,1.87,2.52,3.23,3.37
		s2.93,1.46,4.72,1.85s3.65,0.67,5.59,0.85c2.54,0.21,4.43,0.69,5.67,1.43s1.84,1.91,1.8,3.5c0,1.34-0.68,2.4-2.04,3.18
		c-1.36,0.78-3.15,1.17-5.38,1.17c-0.92,0-1.89-0.1-2.92-0.29c-1.02-0.2-2.04-0.5-3.05-0.93s-1.98-0.96-2.92-1.62
		c-0.94-0.65-1.74-1.44-2.41-2.36l-4.93,5.09c0.78,1.27,1.76,2.38,2.94,3.34s2.5,1.75,3.95,2.38c1.45,0.63,2.97,1.1,4.56,1.38
		c1.59,0.28,3.16,0.41,4.72,0.37c2.01,0,3.96-0.22,5.83-0.66c1.87-0.44,3.53-1.14,4.98-2.09c1.45-0.95,2.61-2.17,3.5-3.66
		c0.88-1.48,1.33-3.25,1.33-5.3c0-2.15-0.4-3.96-1.19-5.41C449.79,20.54,448.73,19.37,447.41,18.47z"/>
	<polygon class="st0" points="469.89,23.19 486.18,23.19 486.18,15.93 469.89,15.93 469.89,8.59 489.29,8.59 489.29,1.01 
		461.79,1.2 461.79,38.29 490.03,38.1 490.03,30.47 469.89,30.47 	"/>
	<polygon class="st0" points="516.69,19.03 531.74,1.22 531.74,1.01 521.72,1.01 509.37,16.32 509.37,1.01 501.11,1.01 501.11,38.1 
		509.37,38.1 509.37,22.26 523.1,38.1 533.06,38.1 533.06,37.63 	"/>
	<path class="st0" d="M344.03,12.57c0-6.08-4.55-11.11-10.31-11.56h-21.69v37.1h7.58V24.13h16.84V38.1h7.58V22.68h-5.72
		C341.71,20.68,344.03,16.9,344.03,12.57z M332.86,16.56L332.86,16.56l-13.25,0V8.58h13.25c1.98,0,3.59,1.79,3.59,3.99
		C336.45,14.77,334.84,16.56,332.86,16.56z"/>
	<path class="st0" d="M32,12.57C32,6.5,27.44,1.47,21.69,1.01H0v37.1h7.58V24.13h16.84V38.1H32V22.68h-5.72
		C29.68,20.68,32,16.9,32,12.57z M20.83,16.56L20.83,16.56l-13.25,0V8.58h13.25c1.98,0,3.59,1.79,3.59,3.99
		C24.42,14.77,22.81,16.56,20.83,16.56z"/>
</g>
</svg>
