<?xml version="1.0" standalone="no"?>
<!DOCTYPE svg PUBLIC "-//W3C//DTD SVG 20010904//EN"
 "http://www.w3.org/TR/2001/REC-SVG-20010904/DTD/svg10.dtd">
<svg version="1.0" xmlns="http://www.w3.org/2000/svg"
 width="720.000000pt" height="720.000000pt" viewBox="0 0 720.000000 720.000000"
 preserveAspectRatio="xMidYMid meet">
<metadata>
Created by potrace 1.14, written by Peter Selinger 2001-2017
</metadata>
<g transform="translate(0.000000,720.000000) scale(0.100000,-0.100000)"
fill="#000000" stroke="none">
<path d="M500 3600 l0 -3600 735 0 734 0 0 1351 c0 744 3 1354 6 1357 6 6
3205 9 3240 4 20 -3 20 -10 18 -1356 l-2 -1353 734 0 735 -1 0 1497 0 1496
-550 0 c-302 0 -550 0 -550 1 0 1 24 17 53 35 28 18 54 36 57 39 3 3 25 19 50
35 25 16 47 32 50 35 3 3 44 38 92 79 98 82 237 225 306 316 26 33 50 62 54
63 4 2 8 8 8 13 0 6 18 34 40 64 22 30 40 57 40 61 0 3 9 18 19 33 60 84 186
366 230 511 21 71 51 191 57 226 3 20 8 46 10 58 2 11 7 39 10 61 3 22 8 54
10 70 3 17 7 118 9 225 3 177 -1 240 -21 380 -4 25 -7 52 -9 60 -1 8 -5 29 -8
45 -4 17 -10 40 -12 53 -9 42 -13 57 -25 102 -14 53 -63 203 -80 245 -7 17
-18 44 -25 60 -23 55 -49 110 -54 115 -4 3 -21 36 -40 73 -32 65 -153 256
-191 301 -153 184 -235 268 -369 379 -53 44 -171 127 -180 127 -5 0 -11 4 -13
8 -9 22 -259 151 -388 200 -133 50 -222 75 -435 119 -16 3 -1001 8 -2187 10
l-2158 3 0 -3600z m4177 2114 c126 -29 242 -98 337 -197 50 -54 116 -148 116
-167 0 -5 5 -10 10 -10 6 0 10 -8 10 -18 0 -10 4 -22 9 -27 8 -10 45 -116 57
-166 4 -13 8 -81 10 -150 3 -109 1 -140 -20 -220 -52 -205 -155 -358 -314
-465 -56 -38 -145 -80 -189 -89 -16 -4 -39 -9 -53 -12 -14 -3 -622 -7 -1352
-8 l-1328 -2 0 106 c-1 396 -1 1364 0 1399 l0 42 1323 0 c1124 -1 1331 -3
1384 -16z"/>
</g>
</svg>
